# xmcd
#
# Track frame offsets:
#  150
#  25331
#  39065
#  55520
#  70894
#  100274
#  124275
#  145556
#  167658
#  184299
#  200326
#  216908
#
# Disc length: 3139 seconds
#
# Revision: 0
# Processed by: cddbd v1.5.1PL2 Copyright (c) Steve Scherf et al.
# Submitted via: Collectorz.com_Music_Collector 6.11
#
DISCID=a40c410c
DTITLE=Guy Clark, Joe Ely, John Hiatt and Lyle Lovett - Theater Of Living Arts, Philadelphia - 25/10/1991 [CD1)
DYEAR=1991
DGENRE=Alt Country
TTITLE0=Guy Clark - Homegrown Tomatoes
TTITLE1=Joe Ely - Me and Billy The Kid
TTITLE2=John Hiatt - Tennessee Plates
TTITLE3=Lyle Lovett - If I Had A Boat
TTITLE4=Guy Clark - La Freeway
TTITLE5=Joe Ely - Neon Of Nashville
TTITLE6=John Hiatt - Don't Think About Her When You're Trying To Drive
TTITLE7=Lyle Lovett - She's Leaving Me Because She Really Wants To
TTITLE8=Guy Clark - She Ain't Going Nowhere
TTITLE9=Joe Ely - My Eyes Got Lucky
TTITLE10=John Hiatt - Trudy and Dave
TTITLE11=Lyle Lovett - Good Intentions
EXTD=
EXTT0=
EXTT1=
EXTT2=
EXTT3=
EXTT4=
EXTT5=
EXTT6=
EXTT7=
EXTT8=
EXTT9=
EXTT10=
EXTT11=
PLAYORDER=
